# xmcd CD database file
#
# Track frame offsets:
#	187
#	14187
#	30685
#	47327
#	59412
#	70230
#	77885
#	91097
#	99672
#	112692
#	127305
#	160760
#
# Disc length: 2385 seconds
#
# Revision: 2
# Processed by: cddbd v1.5.2PL0 Copyright (c) Steve Scherf et al.
# Submitted via: CD2WAV32(JP) R3.22
#
DISCID=9a094f0c
DTITLE=久石譲 - GENESIS CLIMBER MOSPEADA VOL.II
DYEAR=1994
DGENRE=Soundtrack
TTITLE0=ザ・ベトレイヤー
TTITLE1=若き戦士
TTITLE2=大地の風
TTITLE3=荒れ野へ
TTITLE4=ドリーミー・シティー
TTITLE5=SASURAI
TTITLE6=愛の涙
TTITLE7=フレンズ
TTITLE8=ロンリー・エラント
TTITLE9=エンジェル
TTITLE10=モスパダの歌
TTITLE11=軍靴の響
EXTD=
EXTT0=
EXTT1=
EXTT2=
EXTT3=歌：松木美音
EXTT4=
EXTT5=
EXTT6=
EXTT7=
EXTT8=
EXTT9=
EXTT10=歌：松木美音
EXTT11=
PLAYORDER=
